<?xml version="1.0" encoding="UTF-8" standalone="no"?><!-- Generator: Gravit.io --><svg xmlns="http://www.w3.org/2000/svg" xmlns:xlink="http://www.w3.org/1999/xlink" style="isolation:isolate" viewBox="0 0 97.7 95.3" width="97.7pt" height="95.3pt"><defs><clipPath id="_clipPath_KoHFuAXnpg8mSL79CmpV6oG0P0vFcr77"><rect width="97.7" height="95.3"/></clipPath></defs><g clip-path="url(#_clipPath_KoHFuAXnpg8mSL79CmpV6oG0P0vFcr77)"><path d=" M 97.74 48.88 C 97.74 70.46 83.75 88.76 64.35 95.24 C 61.87 95.72 60.99 94.19 60.99 92.89 C 60.99 91.29 61.05 86.01 61.05 79.48 C 61.05 74.92 59.48 71.94 57.73 70.43 C 68.61 69.22 80.04 65.09 80.04 46.32 C 80.04 40.98 78.15 36.62 75.02 33.2 C 75.52 31.97 77.2 27 74.53 20.27 C 71.8 19.4 67.32 21.07 61.11 25.28 C 57.2 24.2 53.02 23.66 48.87 23.64 C 44.71 23.66 40.53 24.2 36.64 25.28 C 30.41 21.07 25.93 19.4 23.2 20.27 C 20.54 27 22.22 31.97 22.72 33.2 C 19.59 36.62 17.69 40.98 17.69 46.32 C 17.69 65.04 29.1 69.24 39.95 70.47 C 38.55 71.69 37.29 73.85 36.85 77 C 34.06 78.25 26.98 80.41 22.62 72.94 C 20.9 69.82 18.41 68.14 15.14 67.91 C 11.96 67.87 11.84 68.86 14.8 70.88 C 16.94 71.88 18.75 74.26 20.23 78.03 C 22.14 84.36 27.63 86.55 36.69 84.58 C 36.71 88.65 36.76 91.73 36.76 92.89 C 36.76 94.18 35.86 95.69 33.42 95.24 C 14 88.78 0 70.46 0 48.88 C 0 21.88 21.88 0 48.86 0 C 75.85 0 97.74 21.88 97.74 48.88 Z " fill="rgb(255,255,255)"/></g></svg>