<?xml version="1.0" encoding="UTF-8" standalone="no"?><!-- Generator: Gravit.io --><svg xmlns="http://www.w3.org/2000/svg" xmlns:xlink="http://www.w3.org/1999/xlink" style="isolation:isolate" viewBox="0 0 122.688 114.432" width="122.688pt" height="114.432pt"><defs><clipPath id="_clipPath_vSJiC3DPRWtJEaGdBu2m2tt9uyFrrwlU"><rect width="122.688" height="114.432"/></clipPath></defs><g clip-path="url(#_clipPath_vSJiC3DPRWtJEaGdBu2m2tt9uyFrrwlU)"><path d=" M 120.016 23.424 L 109.072 23.424 L 82.384 95.136 L 93.232 95.136 L 120.016 23.424 L 120.016 23.424 Z " fill="rgb(5,56,104)"/><path d=" M 6.912 36.288 L 20.544 36.288 L 20.544 25.056 L 6.912 25.056 L 6.912 36.288 L 6.912 36.288 Z  M 20.544 43.968 L 6.912 43.968 L 6.912 93.6 L 20.544 93.6 L 20.544 43.968 L 20.544 43.968 Z  M 44.488 43.968 L 31.528 43.968 L 31.528 93.6 L 45.16 93.6 L 45.16 67.584 L 45.16 67.584 Q 45.16 60 47.656 56.688 L 47.656 56.688 L 47.656 56.688 Q 50.152 53.376 55.72 53.376 L 55.72 53.376 L 55.72 53.376 Q 60.616 53.376 62.536 56.4 L 62.536 56.4 L 62.536 56.4 Q 64.456 59.424 64.456 65.568 L 64.456 65.568 L 64.456 93.6 L 78.088 93.6 L 78.088 63.072 L 78.088 63.072 Q 78.088 58.464 77.272 54.672 L 77.272 54.672 L 77.272 54.672 Q 76.456 50.88 74.44 48.24 L 74.44 48.24 L 74.44 48.24 Q 72.424 45.6 68.92 44.112 L 68.92 44.112 L 68.92 44.112 Q 65.416 42.624 59.944 42.624 L 59.944 42.624 L 59.944 42.624 Q 55.624 42.624 51.496 44.592 L 51.496 44.592 L 51.496 44.592 Q 47.368 46.56 44.776 50.88 L 44.776 50.88 L 44.488 50.88 L 44.488 43.968 L 44.488 43.968 Z " fill="rgb(92,219,149)"/></g></svg>