<?xml version="1.0" encoding="UTF-8" standalone="no"?><!-- Generator: Gravit.io --><svg xmlns="http://www.w3.org/2000/svg" xmlns:xlink="http://www.w3.org/1999/xlink" style="isolation:isolate" viewBox="0 0 898.767 224.1" width="898.767pt" height="224.1pt"><defs><clipPath id="_clipPath_mkmjwiJdFgmNeB17eqxgMxYDBw4CGvLU"><rect width="898.767" height="224.1"/></clipPath></defs><g clip-path="url(#_clipPath_mkmjwiJdFgmNeB17eqxgMxYDBw4CGvLU)"><path d=" M 47.1 5.1 L 0 5.1 L 0 219.3 L 47.1 219.3 L 47.1 5.1 Z  M 125 64.2 L 84.5 64.2 L 84.5 219.3 L 127.1 219.3 L 127.1 138 L 127.1 138 Q 127.1 114.3 134.9 103.95 L 134.9 103.95 L 134.9 103.95 Q 142.7 93.6 160.1 93.6 L 160.1 93.6 L 160.1 93.6 Q 175.4 93.6 181.4 103.05 L 181.4 103.05 L 181.4 103.05 Q 187.4 112.5 187.4 131.7 L 187.4 131.7 L 187.4 219.3 L 230 219.3 L 230 123.9 L 230 123.9 Q 230 109.5 227.45 97.65 L 227.45 97.65 L 227.45 97.65 Q 224.9 85.8 218.6 77.55 L 218.6 77.55 L 218.6 77.55 Q 212.3 69.3 201.35 64.65 L 201.35 64.65 L 201.35 64.65 Q 190.4 60 173.3 60 L 173.3 60 L 173.3 60 Q 159.8 60 146.9 66.15 L 146.9 66.15 L 146.9 66.15 Q 134 72.3 125.9 85.8 L 125.9 85.8 L 125 85.8 L 125 64.2 Z  M 360.9 0 L 326.7 0 L 243.3 224.1 L 277.2 224.1 L 360.9 0 Z  M 410.1 148.2 L 410.1 148.2 L 364.5 148.2 L 364.5 148.2 Q 364.2 168 371.7 182.4 L 371.7 182.4 L 371.7 182.4 Q 379.2 196.8 391.95 206.1 L 391.95 206.1 L 391.95 206.1 Q 404.7 215.4 421.35 219.75 L 421.35 219.75 L 421.35 219.75 Q 438 224.1 455.7 224.1 L 455.7 224.1 L 455.7 224.1 Q 477.6 224.1 494.25 219 L 494.25 219 L 494.25 219 Q 510.9 213.9 522.15 204.75 L 522.15 204.75 L 522.15 204.75 Q 533.4 195.6 539.1 183 L 539.1 183 L 539.1 183 Q 544.8 170.4 544.8 155.7 L 544.8 155.7 L 544.8 155.7 Q 544.8 137.7 537.15 126.15 L 537.15 126.15 L 537.15 126.15 Q 529.5 114.6 519 107.7 L 519 107.7 L 519 107.7 Q 508.5 100.8 497.85 97.65 L 497.85 97.65 L 497.85 97.65 Q 487.2 94.5 481.2 93.3 L 481.2 93.3 L 481.2 93.3 Q 461.1 88.2 448.65 84.9 L 448.65 84.9 L 448.65 84.9 Q 436.2 81.6 429.15 78.3 L 429.15 78.3 L 429.15 78.3 Q 422.1 75 419.7 71.1 L 419.7 71.1 L 419.7 71.1 Q 417.3 67.2 417.3 60.9 L 417.3 60.9 L 417.3 60.9 Q 417.3 54 420.3 49.5 L 420.3 49.5 L 420.3 49.5 Q 423.3 45 427.95 42 L 427.95 42 L 427.95 42 Q 432.6 39 438.3 37.8 L 438.3 37.8 L 438.3 37.8 Q 444 36.6 449.7 36.6 L 449.7 36.6 L 449.7 36.6 Q 458.4 36.6 465.75 38.1 L 465.75 38.1 L 465.75 38.1 Q 473.1 39.6 478.8 43.2 L 478.8 43.2 L 478.8 43.2 Q 484.5 46.8 487.95 53.1 L 487.95 53.1 L 487.95 53.1 Q 491.4 59.4 492 69 L 492 69 L 537.6 69 L 537.6 69 Q 537.6 50.4 530.55 37.35 L 530.55 37.35 L 530.55 37.35 Q 523.5 24.3 511.5 15.9 L 511.5 15.9 L 511.5 15.9 Q 499.5 7.5 484.05 3.75 L 484.05 3.75 L 484.05 3.75 Q 468.6 0 451.8 0 L 451.8 0 L 451.8 0 Q 437.4 0 423 3.9 L 423 3.9 L 423 3.9 Q 408.6 7.8 397.2 15.9 L 397.2 15.9 L 397.2 15.9 Q 385.8 24 378.75 36.15 L 378.75 36.15 L 378.75 36.15 Q 371.7 48.3 371.7 64.8 L 371.7 64.8 L 371.7 64.8 Q 371.7 79.5 377.25 89.85 L 377.25 89.85 L 377.25 89.85 Q 382.8 100.2 391.8 107.1 L 391.8 107.1 L 391.8 107.1 Q 400.8 114 412.2 118.35 L 412.2 118.35 L 412.2 118.35 Q 423.6 122.7 435.6 125.7 L 435.6 125.7 L 435.6 125.7 Q 447.3 129 458.7 131.7 L 458.7 131.7 L 458.7 131.7 Q 470.1 134.4 479.1 138 L 479.1 138 L 479.1 138 Q 488.1 141.6 493.65 147 L 493.65 147 L 493.65 147 Q 499.2 152.4 499.2 161.1 L 499.2 161.1 L 499.2 161.1 Q 499.2 169.2 495 174.45 L 495 174.45 L 495 174.45 Q 490.8 179.7 484.5 182.7 L 484.5 182.7 L 484.5 182.7 Q 478.2 185.7 471 186.75 L 471 186.75 L 471 186.75 Q 463.8 187.8 457.5 187.8 L 457.5 187.8 L 457.5 187.8 Q 448.2 187.8 439.5 185.55 L 439.5 185.55 L 439.5 185.55 Q 430.8 183.3 424.35 178.65 L 424.35 178.65 L 424.35 178.65 Q 417.9 174 414 166.5 L 414 166.5 L 414 166.5 Q 410.1 159 410.1 148.2 Z  M 569.7 40.2 L 612.3 40.2 L 612.3 5.1 L 569.7 5.1 L 569.7 40.2 Z  M 612.3 64.2 L 569.7 64.2 L 569.7 219.3 L 612.3 219.3 L 612.3 64.2 Z  M 730.7 64.2 L 699.5 64.2 L 699.5 17.7 L 656.9 17.7 L 656.9 64.2 L 631.1 64.2 L 631.1 92.7 L 656.9 92.7 L 656.9 184.2 L 656.9 184.2 Q 656.9 195.9 660.8 203.1 L 660.8 203.1 L 660.8 203.1 Q 664.7 210.3 671.45 214.2 L 671.45 214.2 L 671.45 214.2 Q 678.2 218.1 687.05 219.45 L 687.05 219.45 L 687.05 219.45 Q 695.9 220.8 705.8 220.8 L 705.8 220.8 L 705.8 220.8 Q 712.1 220.8 718.7 220.5 L 718.7 220.5 L 718.7 220.5 Q 725.3 220.2 730.7 219.3 L 730.7 219.3 L 730.7 186.3 L 730.7 186.3 Q 727.7 186.9 724.4 187.2 L 724.4 187.2 L 724.4 187.2 Q 721.1 187.5 717.5 187.5 L 717.5 187.5 L 717.5 187.5 Q 706.7 187.5 703.1 183.9 L 703.1 183.9 L 703.1 183.9 Q 699.5 180.3 699.5 169.5 L 699.5 169.5 L 699.5 92.7 L 730.7 92.7 L 730.7 64.2 Z  M 855.9 125.1 L 855.9 125.1 L 786.6 125.1 L 786.6 125.1 Q 786.9 120.6 788.55 114.9 L 788.55 114.9 L 788.55 114.9 Q 790.2 109.2 794.25 104.1 L 794.25 104.1 L 794.25 104.1 Q 798.3 99 805.05 95.55 L 805.05 95.55 L 805.05 95.55 Q 811.8 92.1 822 92.1 L 822 92.1 L 822 92.1 Q 837.6 92.1 845.25 100.5 L 845.25 100.5 L 845.25 100.5 Q 852.9 108.9 855.9 125.1 Z  M 786.6 152.1 L 786.6 152.1 L 898.5 152.1 L 898.5 152.1 Q 899.7 134.1 895.5 117.6 L 895.5 117.6 L 895.5 117.6 Q 891.3 101.1 881.85 88.2 L 881.85 88.2 L 881.85 88.2 Q 872.4 75.3 857.7 67.65 L 857.7 67.65 L 857.7 67.65 Q 843 60 823.2 60 L 823.2 60 L 823.2 60 Q 805.5 60 790.95 66.3 L 790.95 66.3 L 790.95 66.3 Q 776.4 72.6 765.9 83.55 L 765.9 83.55 L 765.9 83.55 Q 755.4 94.5 749.7 109.5 L 749.7 109.5 L 749.7 109.5 Q 744 124.5 744 141.9 L 744 141.9 L 744 141.9 Q 744 159.9 749.55 174.9 L 749.55 174.9 L 749.55 174.9 Q 755.1 189.9 765.3 200.7 L 765.3 200.7 L 765.3 200.7 Q 775.5 211.5 790.2 217.35 L 790.2 217.35 L 790.2 217.35 Q 804.9 223.2 823.2 223.2 L 823.2 223.2 L 823.2 223.2 Q 849.6 223.2 868.2 211.2 L 868.2 211.2 L 868.2 211.2 Q 886.8 199.2 895.8 171.3 L 895.8 171.3 L 858.3 171.3 L 858.3 171.3 Q 856.2 178.5 846.9 184.95 L 846.9 184.95 L 846.9 184.95 Q 837.6 191.4 824.7 191.4 L 824.7 191.4 L 824.7 191.4 Q 806.7 191.4 797.1 182.1 L 797.1 182.1 L 797.1 182.1 Q 787.5 172.8 786.6 152.1 Z " fill="rgb(5,56,104)"/></g></svg>