<?xml version="1.0" encoding="UTF-8" standalone="no"?><!-- Generator: Gravit.io --><svg xmlns="http://www.w3.org/2000/svg" xmlns:xlink="http://www.w3.org/1999/xlink" style="isolation:isolate" viewBox="0 0 286 114.432" width="286pt" height="114.432pt"><defs><clipPath id="_clipPath_qVZQP1Vx16esH3YLq8Nfpg8ZFJsnsBKi"><rect width="286" height="114.432"/></clipPath></defs><g clip-path="url(#_clipPath_qVZQP1Vx16esH3YLq8Nfpg8ZFJsnsBKi)"><path d=" M 118.672 23.424 L 107.728 23.424 L 81.04 95.136 L 91.888 95.136 L 118.672 23.424 L 118.672 23.424 Z  M 133.744 77.472 L 133.744 77.472 L 120.784 77.472 L 120.784 77.472 Q 120.976 82.464 123.04 85.776 L 123.04 85.776 L 123.04 85.776 Q 125.104 89.088 128.32 91.104 L 128.32 91.104 L 128.32 91.104 Q 131.536 93.12 135.664 93.984 L 135.664 93.984 L 135.664 93.984 Q 139.792 94.848 144.112 94.848 L 144.112 94.848 L 144.112 94.848 Q 148.336 94.848 152.416 94.032 L 152.416 94.032 L 152.416 94.032 Q 156.496 93.216 159.664 91.2 L 159.664 91.2 L 159.664 91.2 Q 162.832 89.184 164.8 85.872 L 164.8 85.872 L 164.8 85.872 Q 166.768 82.56 166.768 77.664 L 166.768 77.664 L 166.768 77.664 Q 166.768 74.208 165.424 71.856 L 165.424 71.856 L 165.424 71.856 Q 164.08 69.504 161.872 67.92 L 161.872 67.92 L 161.872 67.92 Q 159.664 66.336 156.832 65.376 L 156.832 65.376 L 156.832 65.376 Q 154 64.416 151.024 63.744 L 151.024 63.744 L 151.024 63.744 Q 148.144 63.072 145.36 62.496 L 145.36 62.496 L 145.36 62.496 Q 142.576 61.92 140.416 61.2 L 140.416 61.2 L 140.416 61.2 Q 138.256 60.48 136.912 59.328 L 136.912 59.328 L 136.912 59.328 Q 135.568 58.176 135.568 56.352 L 135.568 56.352 L 135.568 56.352 Q 135.568 54.816 136.336 53.904 L 136.336 53.904 L 136.336 53.904 Q 137.104 52.992 138.208 52.512 L 138.208 52.512 L 138.208 52.512 Q 139.312 52.032 140.656 51.888 L 140.656 51.888 L 140.656 51.888 Q 142 51.744 143.152 51.744 L 143.152 51.744 L 143.152 51.744 Q 146.8 51.744 149.488 53.136 L 149.488 53.136 L 149.488 53.136 Q 152.176 54.528 152.464 58.464 L 152.464 58.464 L 165.424 58.464 L 165.424 58.464 Q 165.04 53.856 163.072 50.832 L 163.072 50.832 L 163.072 50.832 Q 161.104 47.808 158.128 45.984 L 158.128 45.984 L 158.128 45.984 Q 155.152 44.16 151.36 43.392 L 151.36 43.392 L 151.36 43.392 Q 147.568 42.624 143.536 42.624 L 143.536 42.624 L 143.536 42.624 Q 139.504 42.624 135.664 43.344 L 135.664 43.344 L 135.664 43.344 Q 131.824 44.064 128.752 45.84 L 128.752 45.84 L 128.752 45.84 Q 125.68 47.616 123.808 50.688 L 123.808 50.688 L 123.808 50.688 Q 121.936 53.76 121.936 58.56 L 121.936 58.56 L 121.936 58.56 Q 121.936 61.824 123.28 64.08 L 123.28 64.08 L 123.28 64.08 Q 124.624 66.336 126.832 67.824 L 126.832 67.824 L 126.832 67.824 Q 129.04 69.312 131.872 70.224 L 131.872 70.224 L 131.872 70.224 Q 134.704 71.136 137.68 71.808 L 137.68 71.808 L 137.68 71.808 Q 144.976 73.344 149.056 74.88 L 149.056 74.88 L 149.056 74.88 Q 153.136 76.416 153.136 79.488 L 153.136 79.488 L 153.136 79.488 Q 153.136 81.312 152.272 82.512 L 152.272 82.512 L 152.272 82.512 Q 151.408 83.712 150.112 84.432 L 150.112 84.432 L 150.112 84.432 Q 148.816 85.152 147.232 85.488 L 147.232 85.488 L 147.232 85.488 Q 145.648 85.824 144.208 85.824 L 144.208 85.824 L 144.208 85.824 Q 142.192 85.824 140.32 85.344 L 140.32 85.344 L 140.32 85.344 Q 138.448 84.864 137.008 83.856 L 137.008 83.856 L 137.008 83.856 Q 135.568 82.848 134.656 81.264 L 134.656 81.264 L 134.656 81.264 Q 133.744 79.68 133.744 77.472 Z  M 175.568 36.288 L 189.2 36.288 L 189.2 25.056 L 175.568 25.056 L 175.568 36.288 L 175.568 36.288 Z  M 189.2 43.968 L 175.568 43.968 L 175.568 93.6 L 189.2 93.6 L 189.2 43.968 L 189.2 43.968 Z  M 227.448 43.968 L 217.464 43.968 L 217.464 29.088 L 203.832 29.088 L 203.832 43.968 L 195.576 43.968 L 195.576 53.088 L 203.832 53.088 L 203.832 82.368 L 203.832 82.368 Q 203.832 86.112 205.08 88.416 L 205.08 88.416 L 205.08 88.416 Q 206.328 90.72 208.488 91.968 L 208.488 91.968 L 208.488 91.968 Q 210.648 93.216 213.48 93.648 L 213.48 93.648 L 213.48 93.648 Q 216.312 94.08 219.48 94.08 L 219.48 94.08 L 219.48 94.08 Q 221.496 94.08 223.608 93.984 L 223.608 93.984 L 223.608 93.984 Q 225.72 93.888 227.448 93.6 L 227.448 93.6 L 227.448 83.04 L 227.448 83.04 Q 226.488 83.232 225.432 83.328 L 225.432 83.328 L 225.432 83.328 Q 224.376 83.424 223.224 83.424 L 223.224 83.424 L 223.224 83.424 Q 219.768 83.424 218.616 82.272 L 218.616 82.272 L 218.616 82.272 Q 217.464 81.12 217.464 77.664 L 217.464 77.664 L 217.464 53.088 L 227.448 53.088 L 227.448 43.968 L 227.448 43.968 Z  M 267.592 63.456 L 267.592 63.456 L 245.416 63.456 L 245.416 63.456 Q 245.512 62.016 246.04 60.192 L 246.04 60.192 L 246.04 60.192 Q 246.568 58.368 247.864 56.736 L 247.864 56.736 L 247.864 56.736 Q 249.16 55.104 251.32 54 L 251.32 54 L 251.32 54 Q 253.48 52.896 256.744 52.896 L 256.744 52.896 L 256.744 52.896 Q 261.736 52.896 264.184 55.584 L 264.184 55.584 L 264.184 55.584 Q 266.632 58.272 267.592 63.456 Z  M 245.416 72.096 L 245.416 72.096 L 281.224 72.096 L 281.224 72.096 Q 281.608 66.336 280.264 61.056 L 280.264 61.056 L 280.264 61.056 Q 278.92 55.776 275.896 51.648 L 275.896 51.648 L 275.896 51.648 Q 272.872 47.52 268.168 45.072 L 268.168 45.072 L 268.168 45.072 Q 263.464 42.624 257.128 42.624 L 257.128 42.624 L 257.128 42.624 Q 251.464 42.624 246.808 44.64 L 246.808 44.64 L 246.808 44.64 Q 242.152 46.656 238.792 50.16 L 238.792 50.16 L 238.792 50.16 Q 235.432 53.664 233.608 58.464 L 233.608 58.464 L 233.608 58.464 Q 231.784 63.264 231.784 68.832 L 231.784 68.832 L 231.784 68.832 Q 231.784 74.592 233.56 79.392 L 233.56 79.392 L 233.56 79.392 Q 235.336 84.192 238.6 87.648 L 238.6 87.648 L 238.6 87.648 Q 241.864 91.104 246.568 92.976 L 246.568 92.976 L 246.568 92.976 Q 251.272 94.848 257.128 94.848 L 257.128 94.848 L 257.128 94.848 Q 265.576 94.848 271.528 91.008 L 271.528 91.008 L 271.528 91.008 Q 277.48 87.168 280.36 78.24 L 280.36 78.24 L 268.36 78.24 L 268.36 78.24 Q 267.688 80.544 264.712 82.608 L 264.712 82.608 L 264.712 82.608 Q 261.736 84.672 257.608 84.672 L 257.608 84.672 L 257.608 84.672 Q 251.848 84.672 248.776 81.696 L 248.776 81.696 L 248.776 81.696 Q 245.704 78.72 245.416 72.096 Z " fill="rgb(5,56,104)"/><path d=" M 5.568 36.288 L 19.2 36.288 L 19.2 25.056 L 5.568 25.056 L 5.568 36.288 L 5.568 36.288 Z  M 19.2 43.968 L 5.568 43.968 L 5.568 93.6 L 19.2 93.6 L 19.2 43.968 L 19.2 43.968 Z  M 43.144 43.968 L 30.184 43.968 L 30.184 93.6 L 43.816 93.6 L 43.816 67.584 L 43.816 67.584 Q 43.816 60 46.312 56.688 L 46.312 56.688 L 46.312 56.688 Q 48.808 53.376 54.376 53.376 L 54.376 53.376 L 54.376 53.376 Q 59.272 53.376 61.192 56.4 L 61.192 56.4 L 61.192 56.4 Q 63.112 59.424 63.112 65.568 L 63.112 65.568 L 63.112 93.6 L 76.744 93.6 L 76.744 63.072 L 76.744 63.072 Q 76.744 58.464 75.928 54.672 L 75.928 54.672 L 75.928 54.672 Q 75.112 50.88 73.096 48.24 L 73.096 48.24 L 73.096 48.24 Q 71.08 45.6 67.576 44.112 L 67.576 44.112 L 67.576 44.112 Q 64.072 42.624 58.6 42.624 L 58.6 42.624 L 58.6 42.624 Q 54.28 42.624 50.152 44.592 L 50.152 44.592 L 50.152 44.592 Q 46.024 46.56 43.432 50.88 L 43.432 50.88 L 43.144 50.88 L 43.144 43.968 L 43.144 43.968 Z " fill="rgb(92,219,149)"/></g></svg>