<?xml version="1.0" encoding="UTF-8" standalone="no"?><!-- Generator: Gravit.io --><svg xmlns="http://www.w3.org/2000/svg" xmlns:xlink="http://www.w3.org/1999/xlink" style="isolation:isolate" viewBox="0 0 1200 355" width="1200pt" height="355pt"><defs><clipPath id="_clipPath_Ce2kN0d562VVnvbGN0g80blyvN8TajOv"><rect width="1200" height="355"/></clipPath></defs><g clip-path="url(#_clipPath_Ce2kN0d562VVnvbGN0g80blyvN8TajOv)"><g><g><circle vector-effect="non-scaling-stroke" cx="172.49999995456102" cy="185.4012977819321" r="104.0901408450705" fill="rgb(92,219,149)"/><g><path d=" M 157.81 60.943 L 187.19 60.943 L 187.19 97.878 L 157.81 97.878 L 157.81 60.943 Z " fill="rgb(92,219,149)"/><path d=" M 147.891 51.709 C 150.075 43.02 158.987 35.76 172.655 35.76 C 186.322 35.76 196.495 42.927 197.418 51.709 C 198.549 62.464 187.771 67.599 172.655 67.659 C 156.583 67.722 145.216 62.356 147.891 51.709 Z " fill="rgb(92,219,149)"/><path d=" M 187.19 308.577 L 157.81 308.577 L 157.81 271.642 L 187.19 271.642 L 187.19 308.577 Z " fill="rgb(92,219,149)"/><path d=" M 197.109 317.811 C 194.925 326.5 186.013 333.76 172.345 333.76 C 158.678 333.76 148.505 326.593 147.582 317.811 C 146.451 307.056 157.229 301.921 172.345 301.861 C 188.417 301.798 199.784 307.164 197.109 317.811 Z " fill="rgb(92,219,149)"/></g><g><path d=" M 48.683 199.45 L 48.683 188.537 L 48.683 170.07 L 85.618 170.07 L 85.618 199.45 L 48.683 199.45 Z " fill="rgb(92,219,149)"/><path d=" M 39.449 209.369 C 30.76 207.185 23.5 198.273 23.5 184.605 C 23.5 170.938 30.667 160.765 39.449 159.842 C 50.204 158.711 55.339 169.489 55.399 184.605 C 55.462 200.677 50.096 212.044 39.449 209.369 Z " fill="rgb(92,219,149)"/><path d=" M 296.317 170.07 L 296.317 199.45 L 259.382 199.45 L 259.382 170.07 L 296.317 170.07 Z " fill="rgb(92,219,149)"/><path d=" M 305.551 160.151 C 314.24 162.335 321.5 171.247 321.5 184.915 C 321.5 198.582 314.333 208.755 305.551 209.678 C 294.796 210.809 289.661 200.031 289.601 184.915 C 289.538 168.843 294.904 157.476 305.551 160.151 Z " fill="rgb(92,219,149)"/></g><g><path d=" M 75.202 107.596 L 95.977 86.821 L 122.094 112.938 L 101.319 133.713 L 75.202 107.596 Z " fill="rgb(92,219,149)"/><path d=" M 61.659 108.08 C 57.059 100.391 58.228 88.956 67.892 79.292 C 77.556 69.627 89.817 67.502 96.68 73.059 C 105.084 79.864 101.094 91.117 90.447 101.847 C 79.128 113.256 67.296 117.5 61.659 108.08 Z " fill="rgb(92,219,149)"/><path d=" M 271.081 261.924 L 250.306 282.699 L 224.188 256.582 L 244.963 235.807 L 271.081 261.924 Z " fill="rgb(92,219,149)"/><path d=" M 284.623 261.44 C 289.224 269.129 288.055 280.564 278.391 290.228 C 268.727 299.893 256.466 302.018 249.603 296.461 C 241.198 289.656 245.189 278.403 255.835 267.673 C 267.155 256.264 278.987 252.02 284.623 261.44 Z " fill="rgb(92,219,149)"/></g><g><path d=" M 249.664 86.179 L 270.439 106.954 L 244.322 133.072 L 223.547 112.297 L 249.664 86.179 Z " fill="rgb(92,219,149)"/><path d=" M 249.18 72.637 C 256.869 68.036 268.304 69.205 277.968 78.869 C 287.633 88.533 289.758 100.794 284.201 107.657 C 277.396 116.062 266.143 112.071 255.413 101.425 C 244.004 90.105 239.76 78.273 249.18 72.637 Z " fill="rgb(92,219,149)"/><path d=" M 95.336 282.058 L 74.561 261.283 L 100.678 235.166 L 121.453 255.941 L 95.336 282.058 Z " fill="rgb(92,219,149)"/><path d=" M 95.82 295.601 C 88.131 300.201 76.696 299.032 67.032 289.368 C 57.367 279.704 55.242 267.443 60.799 260.58 C 67.604 252.176 78.857 256.166 89.587 266.813 C 100.996 278.132 105.24 289.964 95.82 295.601 Z " fill="rgb(92,219,149)"/></g><ellipse vector-effect="non-scaling-stroke" cx="134.72535206723705" cy="156.12008551068465" rx="34.41690140845072" ry="34.51597082734381" fill="rgb(255,255,255)"/><ellipse vector-effect="non-scaling-stroke" cx="165.8423324007326" cy="239.42244970058334" rx="14.328247939129284" ry="14.369491954104348" fill="rgb(255,255,255)"/><ellipse vector-effect="non-scaling-stroke" cx="215.9432121649732" cy="183.57715976911322" rx="21.617860097736326" ry="21.68008733929352" fill="rgb(255,255,255)"/><ellipse vector-effect="non-scaling-stroke" cx="194.32535206723693" cy="134.3987518892515" rx="5.8641254625004535" ry="5.881005410378151" fill="rgb(255,255,255)"/></g></g><g clip-path="url(#_clipPath_nj8FnPuZxh3jCUsEN6AKV2It4x0UuP7J)"><text transform="matrix(1,0,0,1,342.5,302.25)" style="font-family:'Helvetica Neue';font-weight:700;font-size:310px;font-style:normal;fill:#053868;stroke:none;">inSite</text></g><defs><clipPath id="_clipPath_nj8FnPuZxh3jCUsEN6AKV2It4x0UuP7J"><rect x="0" y="0" width="834" height="369.52" transform="matrix(1,0,0,1,342.5,0)"/></clipPath></defs></g></svg>