<?xml version="1.0" encoding="UTF-8" standalone="no"?><!-- Generator: Gravit.io --><svg xmlns="http://www.w3.org/2000/svg" xmlns:xlink="http://www.w3.org/1999/xlink" style="isolation:isolate" viewBox="0 0 500 147.9" width="500pt" height="147.9pt"><defs><clipPath id="_clipPath_MGWeqwkTpIKu6jeYee9C0hPzKEywQlq3"><rect width="500" height="147.9"/></clipPath></defs><g clip-path="url(#_clipPath_MGWeqwkTpIKu6jeYee9C0hPzKEywQlq3)"><clipPath id="_clipPath_wcjMebdZC15PMJQOfCF8EPrVxtSqXe9m"><rect x="0" y="0" width="500" height="147.917" transform="matrix(1,0,0,1,0,0)" fill="rgb(255,255,255)"/></clipPath><g clip-path="url(#_clipPath_wcjMebdZC15PMJQOfCF8EPrVxtSqXe9m)"><g><g><g><circle vector-effect="non-scaling-stroke" cx="71.87499998106709" cy="77.25054074247171" r="43.37089201877937" fill="rgb(92,219,149)"/><g><path d=" M 65.754 25.393 L 77.996 25.393 L 77.996 40.783 L 65.754 40.783 L 65.754 25.393 Z " fill="rgb(92,219,149)"/><path d=" M 61.621 21.545 C 62.531 17.925 66.245 14.9 71.94 14.9 C 77.634 14.9 81.873 17.886 82.258 21.545 C 82.729 26.027 78.238 28.166 71.94 28.191 C 65.243 28.217 60.507 25.982 61.621 21.545 Z " fill="rgb(92,219,149)"/><path d=" M 77.996 128.574 L 65.754 128.574 L 65.754 113.184 L 77.996 113.184 L 77.996 128.574 Z " fill="rgb(92,219,149)"/><path d=" M 82.129 132.421 C 81.219 136.042 77.505 139.067 71.81 139.067 C 66.116 139.067 61.877 136.08 61.493 132.421 C 61.021 127.94 65.512 125.8 71.81 125.775 C 78.507 125.749 83.243 127.985 82.129 132.421 Z " fill="rgb(92,219,149)"/></g><g><path d=" M 20.285 83.104 L 20.285 78.557 L 20.285 70.863 L 35.674 70.863 L 35.674 83.104 L 20.285 83.104 Z " fill="rgb(92,219,149)"/><path d=" M 16.437 87.237 C 12.817 86.327 9.792 82.614 9.792 76.919 C 9.792 71.224 12.778 66.985 16.437 66.601 C 20.918 66.13 23.058 70.62 23.083 76.919 C 23.109 83.615 20.873 88.352 16.437 87.237 Z " fill="rgb(92,219,149)"/><path d=" M 123.465 70.863 L 123.465 83.104 L 108.076 83.104 L 108.076 70.863 L 123.465 70.863 Z " fill="rgb(92,219,149)"/><path d=" M 127.313 66.73 C 130.933 67.64 133.958 71.353 133.958 77.048 C 133.958 82.743 130.972 86.981 127.313 87.366 C 122.832 87.837 120.692 83.346 120.667 77.048 C 120.641 70.351 122.877 65.615 127.313 66.73 Z " fill="rgb(92,219,149)"/></g><g><path d=" M 31.334 44.832 L 39.99 36.175 L 50.873 47.058 L 42.216 55.714 L 31.334 44.832 Z " fill="rgb(92,219,149)"/><path d=" M 25.691 45.033 C 23.775 41.83 24.262 37.065 28.288 33.038 C 32.315 29.011 37.424 28.126 40.283 30.441 C 43.785 33.277 42.123 37.965 37.686 42.436 C 32.97 47.19 28.04 48.958 25.691 45.033 Z " fill="rgb(92,219,149)"/><path d=" M 112.95 109.135 L 104.294 117.791 L 93.412 106.909 L 102.068 98.253 L 112.95 109.135 Z " fill="rgb(92,219,149)"/><path d=" M 118.593 108.933 C 120.51 112.137 120.023 116.902 115.996 120.928 C 111.97 124.955 106.861 125.841 104.001 123.525 C 100.499 120.69 102.162 116.001 106.598 111.53 C 111.315 106.777 116.245 105.008 118.593 108.933 Z " fill="rgb(92,219,149)"/></g><g><path d=" M 104.027 35.908 L 112.683 44.564 L 101.801 55.447 L 93.145 46.79 L 104.027 35.908 Z " fill="rgb(92,219,149)"/><path d=" M 103.825 30.265 C 107.029 28.348 111.793 28.835 115.82 32.862 C 119.847 36.889 120.733 41.998 118.417 44.857 C 115.582 48.359 110.893 46.696 106.422 42.26 C 101.668 37.544 99.9 32.614 103.825 30.265 Z " fill="rgb(92,219,149)"/><path d=" M 39.723 117.524 L 31.067 108.868 L 41.949 97.986 L 50.605 106.642 L 39.723 117.524 Z " fill="rgb(92,219,149)"/><path d=" M 39.925 123.167 C 36.721 125.084 31.957 124.597 27.93 120.57 C 23.903 116.543 23.018 111.435 25.333 108.575 C 28.168 105.073 32.857 106.736 37.328 111.172 C 42.082 115.888 43.85 120.818 39.925 123.167 Z " fill="rgb(92,219,149)"/></g><ellipse vector-effect="non-scaling-stroke" cx="56.13556336134877" cy="65.05003562945194" rx="14.340375586854464" ry="14.38165451139325" fill="rgb(255,255,255)"/><ellipse vector-effect="non-scaling-stroke" cx="69.10097183363858" cy="99.75935404190973" rx="5.970103307970533" ry="5.987288314210147" fill="rgb(255,255,255)"/><ellipse vector-effect="non-scaling-stroke" cx="89.97633840207217" cy="76.49048323713052" rx="9.007441707390143" ry="9.033369724705636" fill="rgb(255,255,255)"/><ellipse vector-effect="non-scaling-stroke" cx="80.96889669468206" cy="55.9994799538548" rx="2.4433856093751842" ry="2.4504189209908986" fill="rgb(255,255,255)"/></g></g><clipPath id="_clipPath_kEMmwNXbBQ1baQCkHPghYOzmATi7YTPk"><rect x="142.708" y="0" width="347.5" height="153.967" transform="matrix(1,0,0,1,0,0)" fill="rgb(255,255,255)"/></clipPath><g clip-path="url(#_clipPath_kEMmwNXbBQ1baQCkHPghYOzmATi7YTPk)"><g><g clip-path="url(#_clipPath_w26sRjBFB9sgq2whvpdM8ZNEKohXJOcK)"><text transform="matrix(0.417,0,0,0.417,142.708,125.938)" style="font-family:'Helvetica Neue';font-weight:700;font-size:310px;font-style:normal;font-variant-ligatures:none;fill:#053868;stroke:none;">inSite</text></g><defs><clipPath id="_clipPath_w26sRjBFB9sgq2whvpdM8ZNEKohXJOcK"><rect x="0" y="0" width="834" height="369.52" transform="matrix(0.417,0,0,0.417,142.708,0)"/></clipPath></defs></g></g></g></g></g></svg>